<svg width="444" height="888" viewBox="0 0 444 888" fill="none" xmlns="http://www.w3.org/2000/svg">
<g clip-path="url(#clip0_105_5)">
<rect width="444" height="888" fill="white"/>
<rect width="55.5" height="55.5" fill="white"/>
<rect x="55.5" width="55.5" height="55.5" fill="black"/>
<rect x="111" width="55.5" height="55.5" fill="white"/>
<rect x="166.5" width="55.5" height="55.5" fill="black"/>
<rect x="222" width="55.5" height="55.5" fill="white"/>
<rect x="277.5" width="55.5" height="55.5" fill="black"/>
<rect x="333" width="55.5" height="55.5" fill="white"/>
<rect x="388.5" width="55.5" height="55.5" fill="black"/>
<rect width="55.5" height="55.5" transform="matrix(-1 0 0 1 444 55.5)" fill="white"/>
<rect width="55.5" height="55.5" transform="matrix(-1 0 0 1 388.5 55.5)" fill="black"/>
<rect width="55.5" height="55.5" transform="matrix(-1 0 0 1 333 55.5)" fill="white"/>
<rect width="55.5" height="55.5" transform="matrix(-1 0 0 1 277.5 55.5)" fill="black"/>
<rect width="55.5" height="55.5" transform="matrix(-1 0 0 1 222 55.5)" fill="white"/>
<rect width="55.5" height="55.5" transform="matrix(-1 0 0 1 166.5 55.5)" fill="black"/>
<rect width="55.5" height="55.5" transform="matrix(-1 0 0 1 111 55.5)" fill="white"/>
<rect width="55.5" height="55.5" transform="matrix(-1 0 0 1 55.5 55.5)" fill="black"/>
<rect y="111" width="55.5" height="55.5" fill="white"/>
<rect x="55.5" y="111" width="55.5" height="55.5" fill="black"/>
<rect x="111" y="111" width="55.5" height="55.5" fill="white"/>
<rect x="166.5" y="111" width="55.5" height="55.5" fill="black"/>
<rect x="222" y="111" width="55.5" height="55.5" fill="white"/>
<rect x="277.5" y="111" width="55.5" height="55.5" fill="black"/>
<rect x="333" y="111" width="55.5" height="55.5" fill="white"/>
<rect x="388.5" y="111" width="55.5" height="55.5" fill="black"/>
<rect width="55.5" height="55.5" transform="matrix(-1 0 0 1 444 166.5)" fill="white"/>
<rect width="55.5" height="55.5" transform="matrix(-1 0 0 1 388.5 166.5)" fill="black"/>
<rect width="55.5" height="55.5" transform="matrix(-1 0 0 1 333 166.5)" fill="white"/>
<rect width="55.5" height="55.5" transform="matrix(-1 0 0 1 277.5 166.5)" fill="black"/>
<rect width="55.5" height="55.5" transform="matrix(-1 0 0 1 222 166.5)" fill="white"/>
<rect width="55.5" height="55.5" transform="matrix(-1 0 0 1 166.5 166.5)" fill="black"/>
<rect width="55.5" height="55.5" transform="matrix(-1 0 0 1 111 166.5)" fill="white"/>
<rect width="55.5" height="55.5" transform="matrix(-1 0 0 1 55.5 166.5)" fill="black"/>
<rect y="222" width="55.5" height="55.5" fill="white"/>
<rect x="55.5" y="222" width="55.5" height="55.5" fill="black"/>
<rect x="111" y="222" width="55.5" height="55.5" fill="white"/>
<rect x="166.5" y="222" width="55.5" height="55.5" fill="black"/>
<rect x="222" y="222" width="55.5" height="55.5" fill="white"/>
<rect x="277.5" y="222" width="55.5" height="55.5" fill="black"/>
<rect x="333" y="222" width="55.5" height="55.5" fill="white"/>
<rect x="388.5" y="222" width="55.5" height="55.5" fill="black"/>
<rect width="55.5" height="55.5" transform="matrix(-1 0 0 1 444 277.5)" fill="white"/>
<rect width="55.5" height="55.5" transform="matrix(-1 0 0 1 388.5 277.5)" fill="black"/>
<rect width="55.5" height="55.5" transform="matrix(-1 0 0 1 333 277.5)" fill="white"/>
<rect width="55.5" height="55.5" transform="matrix(-1 0 0 1 277.5 277.5)" fill="black"/>
<rect width="55.5" height="55.5" transform="matrix(-1 0 0 1 222 277.5)" fill="white"/>
<rect width="55.5" height="55.5" transform="matrix(-1 0 0 1 166.5 277.5)" fill="black"/>
<rect width="55.5" height="55.5" transform="matrix(-1 0 0 1 111 277.5)" fill="white"/>
<rect width="55.5" height="55.5" transform="matrix(-1 0 0 1 55.5 277.5)" fill="black"/>
<rect y="333" width="55.5" height="55.5" fill="white"/>
<rect x="55.5" y="333" width="55.5" height="55.5" fill="black"/>
<rect x="111" y="333" width="55.5" height="55.5" fill="white"/>
<rect x="166.5" y="333" width="55.5" height="55.5" fill="black"/>
<rect x="222" y="333" width="55.5" height="55.5" fill="white"/>
<rect x="277.5" y="333" width="55.5" height="55.5" fill="black"/>
<rect x="333" y="333" width="55.5" height="55.5" fill="white"/>
<rect x="388.5" y="333" width="55.5" height="55.5" fill="black"/>
<rect width="55.5" height="55.5" transform="matrix(-1 0 0 1 444 388.5)" fill="white"/>
<rect width="55.5" height="55.5" transform="matrix(-1 0 0 1 388.5 388.5)" fill="black"/>
<rect width="55.5" height="55.5" transform="matrix(-1 0 0 1 333 388.5)" fill="white"/>
<rect width="55.5" height="55.5" transform="matrix(-1 0 0 1 277.5 388.5)" fill="black"/>
<rect width="55.5" height="55.5" transform="matrix(-1 0 0 1 222 388.5)" fill="white"/>
<rect width="55.5" height="55.5" transform="matrix(-1 0 0 1 166.5 388.5)" fill="black"/>
<rect width="55.5" height="55.5" transform="matrix(-1 0 0 1 111 388.5)" fill="white"/>
<rect width="55.5" height="55.5" transform="matrix(-1 0 0 1 55.5 388.5)" fill="black"/>
<rect y="444" width="55.5" height="55.5" fill="white"/>
<rect x="55.5" y="444" width="55.5" height="55.5" fill="black"/>
<rect x="111" y="444" width="55.5" height="55.5" fill="white"/>
<rect x="166.5" y="444" width="55.5" height="55.5" fill="black"/>
<rect x="222" y="444" width="55.5" height="55.5" fill="white"/>
<rect x="277.5" y="444" width="55.5" height="55.5" fill="black"/>
<rect x="333" y="444" width="55.5" height="55.5" fill="white"/>
<rect x="388.5" y="444" width="55.5" height="55.5" fill="black"/>
<rect width="55.5" height="55.5" transform="matrix(-1 0 0 1 444 499.5)" fill="white"/>
<rect width="55.5" height="55.5" transform="matrix(-1 0 0 1 388.5 499.5)" fill="black"/>
<rect width="55.5" height="55.5" transform="matrix(-1 0 0 1 333 499.5)" fill="white"/>
<rect width="55.5" height="55.5" transform="matrix(-1 0 0 1 277.5 499.5)" fill="black"/>
<rect width="55.5" height="55.5" transform="matrix(-1 0 0 1 222 499.5)" fill="white"/>
<rect width="55.5" height="55.5" transform="matrix(-1 0 0 1 166.5 499.5)" fill="black"/>
<rect width="55.5" height="55.5" transform="matrix(-1 0 0 1 111 499.5)" fill="white"/>
<rect width="55.5" height="55.5" transform="matrix(-1 0 0 1 55.5 499.5)" fill="black"/>
<rect y="555" width="55.5" height="55.5" fill="white"/>
<rect x="55.5" y="555" width="55.5" height="55.5" fill="black"/>
<rect x="111" y="555" width="55.5" height="55.5" fill="white"/>
<rect x="166.5" y="555" width="55.5" height="55.5" fill="black"/>
<rect x="222" y="555" width="55.5" height="55.5" fill="white"/>
<rect x="277.5" y="555" width="55.5" height="55.5" fill="black"/>
<rect x="333" y="555" width="55.5" height="55.5" fill="white"/>
<rect x="388.5" y="555" width="55.5" height="55.5" fill="black"/>
<rect width="55.5" height="55.5" transform="matrix(-1 0 0 1 444 610.5)" fill="white"/>
<rect width="55.5" height="55.5" transform="matrix(-1 0 0 1 388.5 610.5)" fill="black"/>
<rect width="55.5" height="55.5" transform="matrix(-1 0 0 1 333 610.5)" fill="white"/>
<rect width="55.5" height="55.5" transform="matrix(-1 0 0 1 277.5 610.5)" fill="black"/>
<rect width="55.5" height="55.5" transform="matrix(-1 0 0 1 222 610.5)" fill="white"/>
<rect width="55.5" height="55.5" transform="matrix(-1 0 0 1 166.5 610.5)" fill="black"/>
<rect width="55.5" height="55.5" transform="matrix(-1 0 0 1 111 610.5)" fill="white"/>
<rect width="55.5" height="55.5" transform="matrix(-1 0 0 1 55.5 610.5)" fill="black"/>
<rect y="666" width="55.5" height="55.5" fill="white"/>
<rect x="55.5" y="666" width="55.5" height="55.5" fill="black"/>
<rect x="111" y="666" width="55.5" height="55.5" fill="white"/>
<rect x="166.5" y="666" width="55.5" height="55.5" fill="black"/>
<rect x="222" y="666" width="55.5" height="55.5" fill="white"/>
<rect x="277.5" y="666" width="55.5" height="55.5" fill="black"/>
<rect x="333" y="666" width="55.5" height="55.5" fill="white"/>
<rect x="388.5" y="666" width="55.5" height="55.5" fill="black"/>
<rect width="55.5" height="55.5" transform="matrix(-1 0 0 1 444 721.5)" fill="white"/>
<rect width="55.5" height="55.5" transform="matrix(-1 0 0 1 388.5 721.5)" fill="black"/>
<rect width="55.5" height="55.5" transform="matrix(-1 0 0 1 333 721.5)" fill="white"/>
<rect width="55.5" height="55.5" transform="matrix(-1 0 0 1 277.5 721.5)" fill="black"/>
<rect width="55.5" height="55.5" transform="matrix(-1 0 0 1 222 721.5)" fill="white"/>
<rect width="55.5" height="55.5" transform="matrix(-1 0 0 1 166.5 721.5)" fill="black"/>
<rect width="55.5" height="55.5" transform="matrix(-1 0 0 1 111 721.5)" fill="white"/>
<rect width="55.5" height="55.5" transform="matrix(-1 0 0 1 55.5 721.5)" fill="black"/>
<rect y="777" width="55.5" height="55.5" fill="white"/>
<rect x="55.5" y="777" width="55.5" height="55.5" fill="black"/>
<rect x="111" y="777" width="55.5" height="55.5" fill="white"/>
<rect x="166.5" y="777" width="55.5" height="55.5" fill="black"/>
<rect x="222" y="777" width="55.5" height="55.5" fill="white"/>
<rect x="277.5" y="777" width="55.5" height="55.5" fill="black"/>
<rect x="333" y="777" width="55.5" height="55.5" fill="white"/>
<rect x="388.5" y="777" width="55.5" height="55.5" fill="black"/>
<rect width="55.5" height="55.5" transform="matrix(-1 0 0 1 444 832.5)" fill="white"/>
<rect width="55.5" height="55.5" transform="matrix(-1 0 0 1 388.5 832.5)" fill="black"/>
<rect width="55.5" height="55.5" transform="matrix(-1 0 0 1 333 832.5)" fill="white"/>
<rect width="55.5" height="55.5" transform="matrix(-1 0 0 1 277.5 832.5)" fill="black"/>
<rect width="55.5" height="55.5" transform="matrix(-1 0 0 1 222 832.5)" fill="white"/>
<rect width="55.5" height="55.5" transform="matrix(-1 0 0 1 166.5 832.5)" fill="black"/>
<rect width="55.5" height="55.5" transform="matrix(-1 0 0 1 111 832.5)" fill="white"/>
<rect width="55.5" height="55.5" transform="matrix(-1 0 0 1 55.5 832.5)" fill="black"/>
</g>
<defs>
<clipPath id="clip0_105_5">
<rect width="444" height="888" fill="white"/>
</clipPath>
</defs>
</svg>
